<?xml version="1.0" encoding="utf-8"?>
<!-- Generator: Adobe Illustrator 27.1.1, SVG Export Plug-In . SVG Version: 6.00 Build 0)  -->
<svg version="1.1" id="Icons" xmlns="http://www.w3.org/2000/svg" xmlns:xlink="http://www.w3.org/1999/xlink" x="0px" y="0px"
	 viewBox="0 0 215 215" style="enable-background:new 0 0 215 215;" xml:space="preserve">
<style type="text/css">
	.st0{fill:#E0A45E;}
	.st1{fill-rule:evenodd;clip-rule:evenodd;fill:#5C2612;}
</style>
<g id="Instagram">
	<circle id="Background" class="st0" cx="107.5" cy="107.5" r="107.5"/>
	<path id="Instagram-2" class="st1" d="M107.5,53c14.8,0,16.7,0.1,22.5,0.3c4.5,0.1,9,0.9,13.2,2.5c7.3,2.8,13.1,8.6,15.9,15.9
		c1.6,4.2,2.4,8.7,2.5,13.2c0.3,5.8,0.3,7.7,0.3,22.5s-0.1,16.7-0.3,22.5c-0.1,4.5-0.9,9-2.5,13.2c-2.8,7.3-8.6,13.1-15.9,15.9
		c-4.2,1.6-8.7,2.5-13.2,2.6c-5.8,0.3-7.7,0.3-22.5,0.3s-16.7-0.1-22.5-0.3c-4.5-0.1-9-0.9-13.2-2.5c-7.3-2.8-13.1-8.6-15.9-15.9
		c-1.6-4.2-2.5-8.7-2.6-13.2c-0.3-5.8-0.3-7.7-0.3-22.5s0.1-16.7,0.3-22.5c0.1-4.5,0.9-9,2.5-13.2c2.8-7.3,8.6-13.1,15.9-16
		c4.2-1.6,8.7-2.4,13.2-2.5C90.8,53.1,92.7,53,107.5,53z M129.5,63.1c-5.7-0.3-7.5-0.3-22-0.3s-16.3,0.1-22,0.3
		c-3.5,0-6.9,0.7-10.1,1.9c-4.8,1.8-8.5,5.6-10.4,10.4c-1.2,3.2-1.8,6.7-1.9,10.1c-0.3,5.7-0.3,7.5-0.3,22s0.1,16.3,0.3,22
		c0,3.5,0.7,6.9,1.9,10.2c1.8,4.8,5.6,8.5,10.4,10.4c3.2,1.2,6.7,1.8,10.1,1.9c5.7,0.3,7.5,0.3,22,0.3s16.3-0.1,22-0.3
		c3.5,0,6.9-0.7,10.2-1.9c4.8-1.8,8.5-5.6,10.4-10.4c1.2-3.2,1.8-6.7,1.9-10.1c0.3-5.7,0.3-7.5,0.3-22s-0.1-16.3-0.3-22
		c0-3.5-0.7-6.9-1.9-10.2c-1.8-4.8-5.6-8.5-10.4-10.4C136.4,63.8,133,63.2,129.5,63.1L129.5,63.1z M107.5,125.7
		c10,0,18.2-8.1,18.2-18.2s-8.1-18.2-18.2-18.2s-18.2,8.1-18.2,18.2C89.3,117.5,97.5,125.7,107.5,125.7z M107.5,79.5
		c15.5,0,28,12.5,28,28s-12.5,28-28,28s-28-12.5-28-28S92,79.5,107.5,79.5z M143.1,78.4c0,3.6-2.9,6.5-6.5,6.5s-6.5-2.9-6.5-6.5
		s2.9-6.5,6.5-6.5S143.1,74.8,143.1,78.4L143.1,78.4z"/>
</g>
</svg>
