<?xml version="1.0" encoding="utf-8"?>
<!-- Generator: Adobe Illustrator 27.1.1, SVG Export Plug-In . SVG Version: 6.00 Build 0)  -->
<svg version="1.1" id="Icons" xmlns="http://www.w3.org/2000/svg" xmlns:xlink="http://www.w3.org/1999/xlink" x="0px" y="0px"
	 viewBox="0 0 215 215" style="enable-background:new 0 0 215 215;" xml:space="preserve">
<style type="text/css">
	.st0{fill:#E0A45E;}
	.st1{fill-rule:evenodd;clip-rule:evenodd;fill:#5C2612;}
</style>
<g id="Telegram">
	<circle id="Background" class="st0" cx="107.5" cy="107.5" r="107.5"/>
	<path id="Telegram-2" class="st1" d="M49.3,105.7C80.6,92,101.4,83,111.8,78.7c29.8-12.4,36-14.5,40-14.6c1.5,0,2.9,0.4,4.2,1.2
		c0.9,0.7,1.4,1.8,1.5,2.9c0.2,1.4,0.3,2.8,0.2,4.2c-1.6,17-8.6,58.1-12.2,77.1c-1.5,8-4.5,10.7-7.3,11c-6.2,0.6-11-4.1-17-8.1
		c-9.4-6.2-14.8-10-23.9-16.1c-10.6-7-3.7-10.8,2.3-17.1c1.6-1.6,29-26.6,29.5-28.9c0.1-0.7,0-1.4-0.5-1.9c-0.7-0.4-1.5-0.5-2.2-0.2
		c-0.9,0.2-16,10.2-45.2,29.9c-4.3,2.9-8.2,4.4-11.6,4.3c-3.8-0.1-11.2-2.2-16.7-4c-6.7-2.2-12-3.3-11.6-7
		C41.6,109.6,44.2,107.7,49.3,105.7z"/>
</g>
</svg>
