<?xml version="1.0" encoding="utf-8"?>
<!-- Generator: Adobe Illustrator 27.1.1, SVG Export Plug-In . SVG Version: 6.00 Build 0)  -->
<svg version="1.1" id="Icons" xmlns="http://www.w3.org/2000/svg" xmlns:xlink="http://www.w3.org/1999/xlink" x="0px" y="0px"
	 viewBox="0 0 215 215" style="enable-background:new 0 0 215 215;" xml:space="preserve">
<style type="text/css">
	.st0{fill:#E0A45E;}
	.st1{fill:#5C2612;}
	.st2{fill-rule:evenodd;clip-rule:evenodd;fill:#5C2612;}
</style>
<g id="WhatsApp">
	<circle id="Background" class="st0" cx="107.5" cy="107.5" r="107.5"/>
	<g id="WhatsApp-2">
		<path id="WhatsApp-3" class="st1" d="M54.9,161l7.5-27.6C47.8,108,56.6,75.5,82,60.8s58-5.9,72.6,19.5c14.7,25.5,5.9,58-19.5,72.6
			c-8.1,4.6-17.2,7.1-26.5,7.1l0,0c-8.9,0-17.6-2.2-25.4-6.5L54.9,161z M84.4,144l1.6,1c6.8,4,14.6,6.2,22.5,6.2l0,0
			c24.4,0,44.2-19.8,44.2-44.2S133,62.7,108.5,62.7c-24.4,0-44.2,19.8-44.2,44.2c0,8.3,2.3,16.5,6.8,23.5l1,1.7l-4.5,16.3L84.4,144z
			"/>
		<path id="WhatsApp-4" class="st2" d="M135.3,119.5c-0.3-0.6-1.2-0.9-2.5-1.6s-7.9-3.9-9.1-4.3s-2.1-0.7-3,0.7s-3.4,4.3-4.2,5.2
			s-1.6,1-2.9,0.3c-3.9-1.6-7.5-3.8-10.6-6.6c-2.9-2.7-5.4-5.8-7.4-9.2c-0.8-1.3-0.1-2,0.6-2.7s1.3-1.6,2-2.3c0.5-0.7,1-1.4,1.3-2.2
			c0.4-0.7,0.3-1.6-0.1-2.3c-0.3-0.7-3-7.2-4.1-9.9s-2.2-2.2-3-2.3s-1.7,0-2.5,0c-1.4,0-2.7,0.6-3.6,1.7c-3,2.9-4.7,6.8-4.6,11
			c0,6.5,4.8,12.9,5.4,13.8s9.4,14.3,22.7,20.1c2.5,1.1,5,2,7.6,2.8c2.7,0.8,5.6,1,8.4,0.5c2.5-0.4,7.9-3.2,9-6.3
			S135.7,120.1,135.3,119.5z"/>
	</g>
</g>
</svg>
