<?xml version="1.0" encoding="utf-8"?>
<!-- Generator: Adobe Illustrator 27.1.1, SVG Export Plug-In . SVG Version: 6.00 Build 0)  -->
<svg version="1.1" id="Icons" xmlns="http://www.w3.org/2000/svg" xmlns:xlink="http://www.w3.org/1999/xlink" x="0px" y="0px"
	 viewBox="0 0 215 215" style="enable-background:new 0 0 215 215;" xml:space="preserve">
<style type="text/css">
	.st0{fill:#E0A45E;}
	.st1{fill:#5C2612;}
</style>
<g id="YouTube">
	<circle id="Background" class="st0" cx="107.5" cy="107.5" r="107.5"/>
	<path id="YouTube-2" class="st1" d="M160.5,80.2c-1.3-4.8-5-8.6-9.8-9.9C142,68,107.2,68,107.2,68s-34.8,0-43.5,2.3
		c-4.8,1.3-8.5,5.1-9.8,9.9c-2.3,8.7-2.3,26.8-2.3,26.8s0,18.1,2.3,26.8c1.3,4.8,5.1,8.5,9.8,9.9c8.7,2.3,43.5,2.3,43.5,2.3
		s34.8,0,43.5-2.3c4.8-1.3,8.6-5,9.8-9.9c2.3-8.7,2.3-26.8,2.3-26.8S162.9,88.9,160.5,80.2z M96,123.7V90.3l29,16.7L96,123.7z"/>
</g>
</svg>
