<?xml version="1.0" encoding="utf-8"?>
<!-- Generator: Adobe Illustrator 27.1.1, SVG Export Plug-In . SVG Version: 6.00 Build 0)  -->
<svg version="1.1" id="Слой_1" xmlns="http://www.w3.org/2000/svg" xmlns:xlink="http://www.w3.org/1999/xlink" x="0px" y="0px"
	 viewBox="0 0 113.51 89.4" style="enable-background:new 0 0 113.51 89.4;" xml:space="preserve">
<style type="text/css">
	.st0{fill:#D89A75;}
	.st1{fill:#5C2612;}
</style>
<g>
	<path class="st0" d="M94.73,27.23l15.4-19.84L89.84,23.13c0.81,0.6,1.69,1.28,2.54,2.01C93.21,25.83,94.01,26.55,94.73,27.23z"/>
	<path class="st0" d="M23.17,23.39l-20.62-16L18.24,27.6c0.81-0.77,1.75-1.64,2.74-2.46C21.71,24.52,22.46,23.93,23.17,23.39z"/>
	<path class="st1" d="M112.17,65.27c0,0,0-0.23-0.03-0.62c-0.03-0.4-0.07-0.96-0.12-1.64c-0.04-0.68-0.13-1.47-0.24-2.31
		c-0.1-0.85-0.22-1.75-0.4-2.64c-0.6-3.59-1.71-7.07-1.71-7.07c-0.43-1.28-1.68-1.98-2.79-1.57c1.12-0.4,1.62-1.74,1.13-2.99
		c0,0-0.07-0.22-0.24-0.58c-0.16-0.36-0.4-0.88-0.68-1.5c-0.27-0.63-0.64-1.33-1.03-2.09c-0.38-0.77-0.82-1.56-1.28-2.34
		c-0.44-0.8-0.93-1.56-1.39-2.28c-0.23-0.36-0.45-0.7-0.67-1.03c-0.23-0.32-0.44-0.62-0.64-0.9c-0.4-0.55-0.73-1.01-0.96-1.34
		c-0.25-0.31-0.38-0.49-0.38-0.49c-0.83-1.06-2.25-1.29-3.15-0.51c0.91-0.75,0.94-2.2,0.04-3.2c0,0-0.63-0.66-1.57-1.64
		c-0.39-0.39-0.85-0.83-1.34-1.29c-0.72-0.67-1.51-1.39-2.34-2.09c-0.85-0.73-1.73-1.41-2.54-2.01c-1.83-1.35-3.31-2.28-3.31-2.28
		c-1.12-0.74-2.56-0.43-3.14,0.59c0.3-0.51,0.34-1.11,0.15-1.66c-0.18-0.56-0.6-1.06-1.2-1.36c0,0-1.03-0.55-2.55-1.25
		c1.2-2.74,0.44-5.11-0.08-6.22c0.07-0.85-0.16-2.13-1.44-3.81c-1.25-1.63-2.22-1.96-3.27-2.19c-0.39-0.09-0.67-0.15-1.08-0.39
		c-0.57-0.34-0.8-0.59-1.08-0.91c-0.42-0.47-0.94-1.05-2.17-1.61c-0.99-0.45-1.79-0.5-2.37-0.5c-0.26,0-0.51,0.01-0.75,0.03
		c-0.24,0.01-0.46,0.02-0.7,0.02c-0.46,0-0.88-0.05-1.35-0.16c-0.78-0.18-1.27-0.4-1.8-0.63c-0.91-0.4-1.85-0.81-3.66-0.81
		c-1.74,0-2.49,0.19-2.98,0.32c-0.23,0.06-0.28,0.07-0.38,0.07c-0.1,0-0.15-0.01-0.38-0.07c-0.49-0.13-1.24-0.32-2.98-0.32
		c-1.66,0-2.59,0.35-3.44,0.72l0,0c0,0-0.01,0.01-0.03,0.01c-0.06,0.03-0.13,0.06-0.19,0.08c-0.53,0.23-1.02,0.45-1.8,0.63
		C47.41,1.54,47,1.58,46.53,1.58c-0.24,0-0.46-0.01-0.7-0.02c-0.24-0.01-0.49-0.03-0.75-0.03c-0.58,0-1.37,0.06-2.36,0.5
		c-1.23,0.55-1.75,1.14-2.17,1.61c-0.28,0.32-0.51,0.57-1.08,0.91c-0.41,0.25-0.69,0.31-1.08,0.39c-1.05,0.23-2.02,0.56-3.27,2.19
		c-1.28,1.68-1.51,2.96-1.44,3.81c-0.52,1.11-1.28,3.47-0.08,6.21c-1.53,0.71-2.58,1.27-2.58,1.27c-0.6,0.3-1.02,0.8-1.2,1.36
		c-0.19,0.55-0.15,1.15,0.15,1.66c-0.58-1.02-2.02-1.34-3.14-0.59c0,0-1.67,1.05-3.66,2.54c-0.71,0.54-1.46,1.13-2.19,1.75
		c-0.98,0.82-1.92,1.69-2.74,2.46c-0.34,0.32-0.66,0.63-0.94,0.91c-0.94,0.99-1.57,1.64-1.57,1.64c-0.9,1-0.86,2.45,0.04,3.2
		c-0.91-0.78-2.33-0.55-3.15,0.51c0,0-0.14,0.18-0.38,0.49c-0.23,0.32-0.56,0.78-0.96,1.34c-0.2,0.28-0.41,0.58-0.64,0.9
		c-0.21,0.33-0.44,0.67-0.67,1.03c-0.47,0.71-0.95,1.48-1.39,2.28c-0.46,0.78-0.9,1.58-1.28,2.34c-0.39,0.76-0.76,1.46-1.03,2.09
		c-0.28,0.62-0.51,1.14-0.68,1.5c-0.17,0.36-0.24,0.58-0.24,0.58c-0.5,1.25,0,2.59,1.13,2.99C5.38,49,4.12,49.7,3.69,50.98
		c0,0-1.11,3.48-1.71,7.07c-0.17,0.89-0.3,1.79-0.4,2.64c-0.11,0.84-0.2,1.63-0.24,2.31c-0.05,0.68-0.09,1.25-0.12,1.64
		c-0.03,0.4-0.03,0.62-0.03,0.62c0,0.18,0.01,0.35,0.04,0.52H0.12v1.99v8.08v1.99h1.99h10.35c3.2,2.15,7.56,3.66,13.02,4.52
		c0.04,0.01,0.08,0.01,0.12,0.02c0.21,0.02,5.15,0.57,12.83,0.75c9.24,0.21,18.15-0.21,26.49-1.24c4.33-0.54,8.45-0.87,12.44-1.19
		c7.45-0.6,13.88-1.11,18.67-2.78c0.06-0.02,0.12-0.05,0.18-0.07h0.38h14.91h1.99v-1.99v-8.08v-1.99h-1.38
		C112.16,65.62,112.17,65.45,112.17,65.27z M107.62,51.62c0,0,1.07,3.34,1.65,6.79c0.17,0.86,0.29,1.72,0.38,2.54
		c0.11,0.81,0.2,1.57,0.23,2.23c0.05,0.65,0.09,1.2,0.12,1.58c0.03,0.38,0.03,0.6,0.03,0.6l-5.17,0.22c0-0.05-0.01-0.11-0.01-0.16
		l4.51-0.59l-4.56-0.1c-0.4-3.91-2.14-7.52-5.11-10.6L107.62,51.62z M99.04,35.17c0,0,0.13,0.17,0.37,0.47
		c0.22,0.31,0.54,0.75,0.92,1.29c0.19,0.27,0.39,0.56,0.61,0.86c0.2,0.32,0.42,0.65,0.64,0.99c0.45,0.69,0.91,1.43,1.34,2.19
		c0.44,0.75,0.87,1.52,1.23,2.25c0.38,0.73,0.73,1.41,0.99,2.01c0.27,0.6,0.49,1.1,0.65,1.44c0.16,0.35,0.23,0.56,0.23,0.56
		l-8.14,3.38l6.8-3.72l-9.71,3.45c-0.72-0.45-1.48-0.88-2.26-1.28c-0.27-0.54-0.58-1.1-0.91-1.65c-0.32-0.58-0.68-1.14-1.02-1.66
		c-0.17-0.26-0.33-0.52-0.48-0.76c-0.17-0.23-0.32-0.45-0.47-0.65c-0.29-0.41-0.53-0.74-0.7-0.98C88.96,43.13,88.86,43,88.86,43
		L99.04,35.17z M85.38,22.65c0,0,2.97,1.86,5.63,4.13c1.34,1.12,2.61,2.33,3.54,3.25c0.9,0.95,1.51,1.58,1.51,1.58l-6.15,5.64
		l5.13-5.79l-9.41,7.82c-0.06-0.06-0.12-0.12-0.18-0.19c-0.71-0.7-1.67-1.62-2.69-2.47c-2.03-1.73-4.28-3.14-4.28-3.14L85.38,22.65z
		 M71.55,33.52c0.33,0.15,0.66,0.29,0.98,0.44c0.79,0.37,1.6,0.67,2.35,1.09c0.75,0.42,1.49,0.84,2.23,1.25
		c2.87,1.78,5.49,3.78,7.6,6.04c1.12,1.06,2.03,2.27,2.95,3.39c0.44,0.5,0.77,1.06,1.12,1.6c-0.69-0.25-1.38-0.48-2.09-0.69
		c-0.02-0.03-0.05-0.06-0.07-0.08c-0.93-1.05-1.83-2.18-2.95-3.17c-2.1-2.11-4.68-3.93-7.44-5.59c-1.5-0.89-3.11-1.64-4.78-2.3
		C71.54,34.99,71.57,34.3,71.55,33.52z M78.79,19.06c1.52,0.7,2.56,1.25,2.56,1.25l-4.88,9.35l3.6-8.97l-6.07,10.3
		c-0.74-0.35-1.71-0.79-2.74-1.18C71.2,29.4,71.15,29,71.1,28.6C73.89,26.09,77.02,22.06,78.79,19.06z M34.87,12.42
		c0.05,0.17,0.1,0.34,0.15,0.52c0.13,0.48,0.32,0.97,0.5,1.51c0.1,0.26,0.21,0.53,0.32,0.8c0.11,0.28,0.22,0.55,0.36,0.83
		c0.13,0.28,0.26,0.56,0.39,0.85c0.14,0.28,0.3,0.56,0.45,0.84c0.29,0.57,0.65,1.12,0.99,1.67c0.09,0.14,0.17,0.28,0.26,0.41
		l0.29,0.4c0.19,0.26,0.38,0.52,0.57,0.78c0.38,0.51,0.81,0.98,1.19,1.45c0.39,0.46,0.83,0.87,1.21,1.27
		c0.37,0.41,0.79,0.74,1.15,1.07c0.18,0.16,0.36,0.31,0.52,0.46c0.08,0.07,0.16,0.14,0.24,0.21c0.08,0.06,0.17,0.12,0.24,0.18
		c0.32,0.24,0.59,0.44,0.82,0.61c0.45,0.34,0.71,0.53,0.71,0.53s-0.25-0.21-0.68-0.57c-0.22-0.18-0.48-0.4-0.78-0.65
		c-0.08-0.06-0.15-0.13-0.23-0.19c-0.07-0.07-0.15-0.15-0.23-0.22c-0.16-0.15-0.32-0.32-0.5-0.48c-0.34-0.34-0.74-0.68-1.09-1.11
		c-0.36-0.42-0.76-0.84-1.13-1.31c-0.36-0.48-0.75-0.96-1.1-1.49c-0.17-0.26-0.35-0.53-0.52-0.8l-0.26-0.4
		c-0.08-0.14-0.16-0.28-0.24-0.42c-0.31-0.56-0.64-1.11-0.89-1.68c-0.13-0.28-0.28-0.56-0.4-0.84c-0.12-0.28-0.23-0.57-0.34-0.84
		c-0.12-0.27-0.22-0.55-0.31-0.82c-0.09-0.27-0.19-0.54-0.27-0.79c-0.15-0.53-0.31-1.02-0.41-1.48c-0.06-0.23-0.11-0.45-0.16-0.66
		c-0.04-0.21-0.08-0.41-0.12-0.6c-0.07-0.38-0.12-0.71-0.16-0.98c-0.01-0.08-0.02-0.16-0.03-0.23c0.09-0.5,0.37-1.2,1.07-2.12
		c1.44-1.88,2.08-1.3,3.45-1.94c-0.01,0.09-0.02,0.17-0.03,0.26c-0.02,0.25-0.05,0.52-0.05,0.81c0,0.14-0.01,0.29-0.01,0.44
		c0.01,0.15,0.01,0.3,0.02,0.45c0.01,0.15,0.02,0.31,0.02,0.47c0.02,0.16,0.03,0.32,0.05,0.48c0.02,0.16,0.04,0.33,0.05,0.5
		c0.03,0.17,0.05,0.34,0.08,0.51c0.05,0.34,0.11,0.7,0.2,1.05c0.08,0.35,0.15,0.72,0.26,1.08c0.1,0.36,0.2,0.73,0.31,1.1
		c0.12,0.37,0.24,0.74,0.36,1.11c0.12,0.38,0.27,0.74,0.41,1.11c0.14,0.37,0.28,0.75,0.44,1.11c0.32,0.73,0.67,1.46,1.05,2.15
		c0.38,0.69,0.79,1.34,1.23,1.96c0.86,1.23,1.8,2.27,2.67,3.07c0.88,0.81,1.69,1.39,2.27,1.75c0.59,0.37,0.95,0.52,0.95,0.52
		s-0.35-0.18-0.92-0.57c-0.56-0.4-1.33-1.01-2.15-1.86c-0.82-0.84-1.68-1.92-2.45-3.16c-0.39-0.62-0.75-1.28-1.08-1.97
		c-0.34-0.69-0.63-1.41-0.9-2.14c-0.14-0.37-0.25-0.73-0.38-1.11c-0.12-0.37-0.25-0.74-0.35-1.11c-0.1-0.37-0.2-0.74-0.3-1.1
		c-0.09-0.36-0.17-0.73-0.25-1.08c-0.09-0.35-0.13-0.71-0.2-1.05c-0.07-0.34-0.11-0.68-0.14-1.01C41.04,9.81,41.02,9.65,41,9.49
		c-0.01-0.16-0.02-0.32-0.03-0.47c-0.01-0.15-0.02-0.31-0.03-0.45c0-0.15,0-0.29,0-0.44c0-0.14,0-0.28,0-0.42
		c0.01-0.13,0.02-0.27,0.03-0.39c0.01-0.26,0.04-0.5,0.07-0.72c0.06-0.45,0.16-0.82,0.24-1.12c0.04-0.13,0.09-0.25,0.13-0.35
		c0.58-0.58,0.79-1.06,1.98-1.6c0.65-0.29,1.17-0.36,1.69-0.36c0.45,0,0.91,0.05,1.44,0.05c0.37,0,0.79-0.03,1.27-0.11
		c-0.23,0.47-0.42,1.01-0.56,1.6c-0.33,1.35-0.36,2.95-0.15,4.59c0.1,0.82,0.27,1.66,0.47,2.49c0.2,0.84,0.45,1.66,0.73,2.5
		c0.3,0.8,0.57,1.61,0.92,2.4c0.08,0.2,0.17,0.39,0.25,0.59c0.09,0.19,0.18,0.38,0.27,0.57c0.18,0.38,0.35,0.75,0.55,1.1
		c0.38,0.72,0.78,1.39,1.18,2.01c0.21,0.31,0.41,0.61,0.61,0.89c0.21,0.28,0.41,0.55,0.61,0.8c0.41,0.5,0.81,0.94,1.18,1.31
		c0.37,0.37,0.71,0.68,1,0.91c0.29,0.24,0.53,0.41,0.7,0.52c0.17,0.11,0.26,0.16,0.26,0.16s-0.09-0.06-0.25-0.18
		c-0.16-0.12-0.39-0.3-0.66-0.56c-0.28-0.25-0.59-0.58-0.94-0.97c-0.34-0.39-0.71-0.85-1.08-1.37c-0.19-0.26-0.36-0.54-0.55-0.83
		c-0.19-0.29-0.36-0.6-0.55-0.91c-0.36-0.64-0.71-1.32-1.03-2.05c-0.18-0.36-0.32-0.74-0.47-1.11c-0.08-0.19-0.15-0.38-0.23-0.57
		c-0.07-0.19-0.14-0.39-0.2-0.59c-0.29-0.77-0.52-1.6-0.76-2.42c-0.21-0.8-0.42-1.63-0.56-2.44c-0.15-0.81-0.26-1.62-0.31-2.39
		c-0.11-1.55,0.02-2.99,0.36-4.12c0.17-0.57,0.39-1.05,0.62-1.45c0.23-0.4,0.48-0.7,0.7-0.92c0.22-0.22,0.41-0.36,0.54-0.44
		c0.04-0.02,0.07-0.04,0.09-0.06c0.75-0.32,1.46-0.59,2.8-0.59c1.75,0,2.28,0.2,2.76,0.31c-0.34,0.48-0.6,1.06-0.8,1.71
		c-0.39,1.32-0.45,2.87-0.33,4.48c0.06,0.81,0.18,1.63,0.32,2.47c0.14,0.83,0.32,1.67,0.54,2.5c0.86,3.32,2.31,6.42,3.54,8.65
		c1.24,2.23,2.25,3.59,2.25,3.59s-0.95-1.41-2.08-3.68c-0.65-1.3-1.35-2.89-1.97-4.63c-0.89-3.47-2.25-11,0.97-15.34
		c0.38-0.04,0.86-0.07,1.52-0.07c1.94,0,2.56,0.55,3.89,1.04c-0.15,0.17-0.29,0.36-0.41,0.56c-0.28,0.48-0.49,1.03-0.63,1.64
		c-0.29,1.22-0.36,2.62-0.3,4.11c0.02,0.37,0.04,0.74,0.07,1.12c0.02,0.37,0.05,0.76,0.1,1.15c0.07,0.78,0.18,1.55,0.3,2.33
		c0.13,0.77,0.26,1.55,0.42,2.3c0.15,0.76,0.33,1.49,0.5,2.21c0.18,0.71,0.36,1.39,0.55,2.04c0.19,0.64,0.37,1.25,0.56,1.81
		c0.72,2.23,1.34,3.66,1.34,3.66s-0.54-1.46-1.14-3.72c-0.15-0.56-0.31-1.18-0.46-1.83c-0.16-0.65-0.3-1.34-0.44-2.05
		c-0.04-0.19-0.07-0.39-0.11-0.58c-0.14-2.5-0.31-7.65,0.46-11.04c0.38-1.67,0.87-2.64,1.3-3.19c0.3,0.03,0.57,0.05,0.83,0.05
		c0.54,0,0.99-0.05,1.44-0.05c0.52,0,1.04,0.07,1.69,0.36c1.4,0.63,1.44,1.18,2.32,1.9c-0.05,0.11-0.11,0.23-0.17,0.36
		c-0.25,0.55-0.54,1.34-0.83,2.29c-0.29,0.96-0.59,2.08-0.85,3.28c-0.13,0.61-0.26,1.22-0.38,1.87c-0.12,0.64-0.22,1.29-0.33,1.94
		c-0.81,5.19-1.2,10.41-1.2,10.41s0.18-1.3,0.5-3.23c0.22-1.36,0.52-3.05,0.87-4.81c0.68-2.71,1.73-6.49,2.78-8.56
		c0.65-1.28,1.43-1.99,2.09-2.39c0.66,0.15,1.25,0.35,2.16,1.55c0.86,1.13,1.09,1.94,1.11,2.44c-0.66,3.15-2.82,11.35-8.24,15.92
		c-0.59,0.5-0.87,0.87-1,1.14c-0.67-0.1-1.61-0.22-2.72-0.33c-0.58-0.06-1.21-0.11-1.88-0.17c-0.67-0.04-1.37-0.1-2.1-0.12
		c-0.73-0.03-1.48-0.06-2.25-0.07c-0.77-0.02-1.54-0.02-2.32-0.01c-0.78,0-1.55,0.04-2.32,0.06c-0.76,0.02-1.51,0.09-2.24,0.13
		c-0.73,0.04-1.43,0.12-2.09,0.18c-0.66,0.06-1.29,0.14-1.86,0.21c-0.58,0.08-1.1,0.14-1.57,0.21c-0.47,0.08-0.87,0.15-1.21,0.2
		c-0.67,0.11-1.05,0.17-1.05,0.17s0.38-0.04,1.06-0.11c0.34-0.03,0.74-0.07,1.21-0.12c0.47-0.04,1-0.07,1.58-0.11
		c0.58-0.04,1.2-0.08,1.87-0.09c0.66-0.01,1.36-0.05,2.08-0.04c0.72,0.01,1.47-0.01,2.23,0.02c0.76,0.03,1.53,0.04,2.29,0.09
		c0.77,0.04,1.54,0.09,2.29,0.16c0.75,0.06,1.49,0.14,2.21,0.22c0.72,0.07,1.4,0.18,2.06,0.26c0.65,0.1,1.27,0.18,1.83,0.28
		c1.09,0.18,1.99,0.36,2.64,0.5c-0.17,2.01-0.72,4.75-0.92,5.71c-0.24-0.01-0.49-0.01-0.75-0.02c-2.41-0.05-5.63-0.08-8.84-0.04
		c-1.61,0.02-3.21,0.05-4.72,0.1c-0.75,0.02-1.48,0.05-2.17,0.08c-0.69,0.03-1.34,0.06-1.94,0.09c-1.2,0.06-2.2,0.12-2.9,0.18
		c-0.7,0.05-1.1,0.08-1.1,0.08s0.4,0,1.1,0.01c0.7,0,1.7,0.02,2.91,0.05c0.6,0.01,1.25,0.03,1.94,0.06
		c0.69,0.02,1.41,0.05,2.16,0.09c1.5,0.06,3.1,0.15,4.7,0.26c2.23,0.14,4.45,0.32,6.41,0.49c-7.98-0.54-16.66-0.08-19.37,0.09
		c-0.82-0.25-1.32-0.55-1.46-0.92c-0.48-1.25,0.43-7.51,0.43-7.51c-3.32-2.72-7.61-8.45-8.92-11.41
		C34.39,14.88,34.57,13.4,34.87,12.42z M34.6,19.05c1.77,3,4.9,7.04,7.7,9.55c-0.05,0.39-0.1,0.79-0.15,1.19
		c-2.24,0.86-4.19,1.9-4.19,1.9l-5.94-11.38C32.02,20.32,33.07,19.75,34.6,19.05z M41.95,35.52c-0.75,0.33-1.5,0.66-2.25,0.98
		c-0.75,0.33-1.44,0.77-2.16,1.15c-0.35,0.19-0.71,0.39-1.06,0.58c-0.35,0.2-0.67,0.44-1,0.66c-0.66,0.44-1.31,0.88-1.96,1.31
		c-0.61,0.49-1.21,0.97-1.8,1.45c-0.29,0.24-0.6,0.47-0.88,0.72c-0.27,0.26-0.54,0.52-0.81,0.78c-0.53,0.52-1.07,1.02-1.58,1.53
		c-0.47,0.55-0.94,1.08-1.4,1.61c-0.23,0.26-0.46,0.53-0.69,0.78c-0.21,0.27-0.4,0.55-0.6,0.83c-0.2,0.28-0.39,0.54-0.59,0.81
		c-0.57,0.13-1.14,0.3-1.72,0.49c0.06-0.1,0.12-0.2,0.19-0.3c0.37-0.56,0.74-1.14,1.13-1.72c0.19-0.29,0.38-0.59,0.59-0.88
		c0.22-0.28,0.45-0.56,0.67-0.84c0.46-0.57,0.92-1.14,1.39-1.73c0.51-0.55,1.05-1.09,1.58-1.65c0.27-0.28,0.54-0.56,0.81-0.84
		c0.28-0.27,0.59-0.52,0.89-0.78c0.6-0.52,1.21-1.04,1.83-1.57c0.66-0.47,1.33-0.95,2.01-1.43c0.34-0.23,0.67-0.49,1.03-0.71
		c0.36-0.21,0.73-0.42,1.09-0.63c1.61-0.99,3.35-1.84,5.17-2.56C41.83,34.34,41.86,35.01,41.95,35.52z M18.81,30.02
		c0.93-0.92,2.2-2.12,3.54-3.25c2.66-2.27,5.63-4.13,5.63-4.13l4.45,6.96l-4.3-5.16l5.73,9.7c-0.84,0.58-2.08,1.46-3.25,2.46
		c-1.02,0.85-1.98,1.77-2.69,2.47c-0.69,0.72-1.15,1.2-1.15,1.2l-9.46-8.68C17.31,31.6,17.91,30.97,18.81,30.02z M7.57,46.69
		c0.16-0.35,0.38-0.85,0.65-1.44c0.26-0.6,0.61-1.28,0.99-2.01c0.36-0.74,0.79-1.5,1.23-2.25c0.42-0.76,0.89-1.5,1.34-2.19
		c0.22-0.34,0.44-0.68,0.64-0.99c0.22-0.31,0.42-0.6,0.61-0.86c0.38-0.53,0.7-0.98,0.92-1.29c0.24-0.3,0.37-0.47,0.37-0.47l7.68,5.9
		l-7.05-4.29l8.67,7.41c-0.03,0.05-0.06,0.09-0.1,0.14c-0.14,0.2-0.3,0.42-0.47,0.65c-0.15,0.24-0.32,0.49-0.48,0.76
		c-0.34,0.52-0.7,1.08-1.02,1.66c-0.34,0.57-0.66,1.15-0.94,1.71c-0.28,0.55-0.56,1.07-0.75,1.53c-0.07,0.16-0.14,0.31-0.21,0.46
		c-0.36,0.25-0.71,0.53-1.04,0.82L7.33,47.24C7.33,47.24,7.41,47.03,7.57,46.69z M3.36,64.76c0.03-0.38,0.07-0.93,0.12-1.58
		c0.04-0.65,0.12-1.41,0.23-2.23c0.1-0.81,0.21-1.68,0.38-2.54c0.58-3.45,1.65-6.79,1.65-6.79l8.13,2.56
		c-0.08,0.05-0.16,0.09-0.25,0.14l-6.88-1.44l5.69,2.18c-2.99,1.99-5.97,5.09-6.38,9.68c-0.02,0.25-0.02,0.49-0.03,0.73l-2.69-0.12
		C3.33,65.36,3.33,65.14,3.36,64.76z M2.11,75.86v-8.08h3.97c0.03,0.24,0.06,0.48,0.1,0.72c-0.69,0.03-1.27,0.06-1.72,0.08
		c-0.8,0.04-1.23,0.06-1.23,0.06s0.43,0.02,1.23,0.05c0.46,0.02,1.06,0.04,1.76,0.06c0.38,2.14,1.26,4.09,2.63,5.82
		c0.07,0.09,0.16,0.18,0.23,0.27c-0.4,0.01-0.78,0.01-1.15,0.02c-1.5,0.03-2.68,0.07-3.48,0.1c-0.8,0.03-1.23,0.05-1.23,0.05
		s0.43,0.02,1.23,0.06c0.8,0.04,1.98,0.1,3.48,0.14c0.47,0.02,0.98,0.03,1.51,0.05c0.18,0.2,0.38,0.4,0.58,0.6H2.11z M8.75,65.18
		c0.19-2.14,1.12-3.89,2.36-5.31c2.79,0.82,8.8,2.94,16.7,7.77c0,0-5.68-8.74-16.07-8.43c3.09-3.04,7.48-4.34,7.96-4.47
		c2.13,0.22,6.48,0.9,9.85,3.02c4.58,2.88,7.77,6.09,12.63,8.48c0,0-1.73-5.41-8.71-10.16c-4.8-3.27-10.13-2.72-12.98-2.05
		c3.46-2.97,8.66-3.23,11-3.18c0.29,0.01,0.53,0.02,0.72,0.03c1.99,0.35,5.17,1.41,8.68,4.51c5.87,5.18,9.43,8.67,14.67,8.79
		c0,0-4.55-7.61-9.09-11.49c-3.15-2.7-7.59-3.66-11.57-3.25c3.06-1.45,7.17-1.66,9.15-1.67c0.67,0.02,5.29,0.31,10.08,4.55
		c5.59,4.94,8.63,8.79,14.49,10.29c0,0-4.75-10.35-10.81-13.29c-4.74-2.3-9.22-2.25-11.74-1.95c2.44-1.08,5.04-1.38,7.32-1.33
		c2.9,0.07,5.28,0.69,6.13,0.94c1.3,0.43,4.85,1.78,7.99,4.73c4.12,3.88,8.56,7.29,11.9,8.09c0,0-2.29-6.58-7.48-10.12
		c-3.63-2.47-8.49-2.88-11.09-2.9c1.9-0.56,3.95-0.73,5.94-0.69c4.75,0.11,9.15,1.46,10.18,1.8c1.42,0.62,4.95,2.29,8.02,4.82
		c3.95,3.25,6.35,5.86,6.35,5.86s-2.26-5.35-5.61-7.72c-2.27-1.6-4.59-2.4-6.36-2.81c3.39,0.24,7.1,1.12,10.52,2.61
		c9.85,4.34,7.14,15.17-8.13,20.19c0.36-0.13,0.73-0.27,1.08-0.4c2.03-0.82,3.86-1.78,5.44-2.83c1.59-1.03,2.89-2.23,3.89-3.4
		c1.01-1.17,1.71-2.35,2.09-3.41c0.05-0.13,0.11-0.25,0.15-0.38c0.04-0.13,0.07-0.25,0.1-0.38c0.06-0.24,0.12-0.47,0.17-0.68
		c0.05-0.44,0.11-0.81,0.12-1.11c-0.02-0.61-0.02-0.93-0.02-0.93s-0.03,0.32-0.09,0.91c-0.05,0.29-0.16,0.64-0.25,1.05
		c-0.08,0.2-0.16,0.4-0.25,0.63c-0.04,0.11-0.09,0.23-0.13,0.34c-0.05,0.12-0.12,0.23-0.18,0.34c-0.47,0.96-1.27,1.99-2.32,3.01
		c-1.06,1.01-2.39,2.03-3.98,2.91c-1.59,0.89-3.41,1.68-5.39,2.38c-1.01,0.31-2.04,0.65-3.11,0.9c-1.03,0.29-2.24,0.52-3.34,0.75
		c-1.16,0.2-2.33,0.43-3.52,0.62c-1.2,0.18-2.4,0.4-3.63,0.58c-2.44,0.38-4.94,0.72-7.44,1.03c-2.5,0.34-5,0.64-7.47,0.91
		c-2.47,0.26-4.9,0.54-7.26,0.76c-2.36,0.21-4.64,0.42-6.81,0.62c-2.17,0.16-4.22,0.33-6.12,0.45c-0.95,0.07-1.86,0.1-2.72,0.16
		c-0.87,0.05-1.69,0.1-2.46,0.12c-0.77,0.03-1.5,0.06-2.17,0.08c-0.67,0.01-1.29,0.03-1.84,0.04c-1.11,0.03-2,0.01-2.59,0.01
		c-0.6,0-0.92,0-0.92,0s0.32,0.04,0.92,0.12c0.6,0.07,1.48,0.22,2.6,0.3c0.56,0.05,1.19,0.1,1.87,0.16
		c0.68,0.05,1.41,0.08,2.19,0.12c1.57,0.08,3.33,0.13,5.25,0.14c0.96,0,1.96,0,3,0c0.88-0.02,1.8-0.04,2.73-0.06
		c-12.46,0.69-23.16,0.4-26.11-1.51C9.89,72.67,8.39,69.33,8.75,65.18z M12.22,59.86c0,0,0.23-0.01,0.64-0.02
		c0.21,0,0.46-0.02,0.74,0c0.29,0.01,0.61,0.03,0.97,0.06c0.35,0.05,0.74,0.1,1.15,0.16c0.4,0.09,0.83,0.16,1.27,0.29
		c0.43,0.14,0.89,0.25,1.33,0.43c0.45,0.16,0.9,0.36,1.34,0.56c0.44,0.22,0.88,0.44,1.29,0.69c0.42,0.24,0.82,0.5,1.2,0.77
		c0.38,0.26,0.73,0.54,1.06,0.81c0.33,0.27,0.63,0.53,0.9,0.78c0.55,0.5,0.95,0.96,1.24,1.28c0.27,0.33,0.43,0.52,0.43,0.52
		s-0.18-0.16-0.5-0.45c-0.32-0.28-0.79-0.67-1.35-1.12c-0.28-0.23-0.6-0.46-0.94-0.7c-0.34-0.24-0.7-0.48-1.08-0.72
		c-0.19-0.12-0.38-0.24-0.58-0.36c-0.2-0.11-0.4-0.23-0.61-0.35c-0.41-0.24-0.83-0.45-1.26-0.65c-0.43-0.2-0.86-0.4-1.3-0.56
		c-0.43-0.18-0.87-0.32-1.28-0.46c-0.42-0.12-0.83-0.24-1.22-0.36c-0.39-0.09-0.77-0.17-1.11-0.25c-0.35-0.05-0.67-0.11-0.95-0.16
		c-0.28-0.05-0.53-0.07-0.74-0.09C12.46,59.89,12.22,59.86,12.22,59.86z M22,54.67c0,0,0.08-0.01,0.22-0.04
		c0.14-0.02,0.35-0.07,0.62-0.1c0.54-0.06,1.32-0.16,2.28-0.13c0.95,0.02,2.08,0.15,3.27,0.46c0.59,0.17,1.2,0.35,1.8,0.62
		c0.6,0.25,1.19,0.56,1.79,0.9c0.54,0.35,1.11,0.73,1.62,1.12c0.52,0.39,1.01,0.81,1.48,1.21c0.93,0.83,1.73,1.67,2.36,2.43
		c0.64,0.76,1.09,1.45,1.41,1.93c0.31,0.49,0.46,0.78,0.46,0.78s-0.21-0.25-0.58-0.69c-0.37-0.44-0.93-1.03-1.62-1.72
		c-0.69-0.68-1.53-1.44-2.47-2.2c-0.47-0.38-0.97-0.75-1.48-1.12c-0.52-0.38-1.03-0.72-1.59-1.07c-0.53-0.31-1.08-0.62-1.65-0.86
		c-0.56-0.25-1.13-0.46-1.69-0.65c-0.56-0.16-1.11-0.32-1.63-0.42c-0.52-0.11-1.03-0.19-1.49-0.25c-0.93-0.12-1.71-0.17-2.26-0.18
		C22.32,54.68,22,54.67,22,54.67z M34.85,50.24c0,0,0.09-0.01,0.26-0.04c0.17-0.02,0.42-0.08,0.73-0.09
		c0.32-0.03,0.71-0.05,1.16-0.05c0.23,0.01,0.47,0.01,0.72,0.02c0.25,0.02,0.52,0.05,0.8,0.07c1.12,0.14,2.43,0.43,3.77,0.99
		c0.67,0.28,1.35,0.62,2.01,1.03c0.33,0.2,0.65,0.43,0.98,0.67c0.32,0.25,0.59,0.45,0.91,0.73c0.59,0.51,1.13,1.06,1.67,1.6
		c0.53,0.54,1.02,1.11,1.48,1.66c0.93,1.1,1.73,2.18,2.37,3.13c0.65,0.95,1.14,1.76,1.47,2.34c0.17,0.29,0.29,0.52,0.37,0.68
		c0.08,0.16,0.13,0.24,0.13,0.24s-0.24-0.29-0.67-0.81c-0.43-0.51-1.04-1.24-1.78-2.1c-0.37-0.43-0.78-0.89-1.21-1.38
		c-0.43-0.48-0.9-0.99-1.38-1.5c-0.48-0.52-0.99-1.03-1.51-1.56c-0.52-0.52-1.06-1.04-1.63-1.51c-0.24-0.22-0.58-0.49-0.85-0.71
		c-0.28-0.21-0.57-0.42-0.87-0.61c-0.61-0.38-1.21-0.75-1.83-1.03c-0.62-0.29-1.22-0.55-1.82-0.75c-0.59-0.21-1.16-0.36-1.69-0.5
		c-0.53-0.12-1.02-0.22-1.46-0.3c-0.44-0.06-0.82-0.12-1.14-0.15C35.22,50.26,34.85,50.24,34.85,50.24z M48.86,48.31
		c0,0,0.34-0.04,0.95-0.05c0.61-0.01,1.49,0.01,2.55,0.16c1.06,0.15,2.29,0.45,3.57,0.95c0.32,0.12,0.64,0.27,0.97,0.41L57.37,50
		c0.17,0.09,0.32,0.18,0.49,0.27c0.65,0.35,1.26,0.79,1.86,1.23c0.58,0.47,1.13,0.96,1.65,1.48c0.52,0.51,0.99,1.05,1.43,1.58
		c0.45,0.52,0.84,1.06,1.2,1.58c0.37,0.51,0.69,1.01,0.97,1.48c0.29,0.46,0.53,0.9,0.75,1.29c0.21,0.39,0.38,0.73,0.52,1.02
		c0.14,0.28,0.23,0.51,0.31,0.67c0.07,0.15,0.1,0.24,0.1,0.24s-0.22-0.29-0.59-0.8c-0.37-0.51-0.92-1.23-1.58-2.07
		c-0.33-0.42-0.7-0.87-1.1-1.34c-0.39-0.47-0.82-0.95-1.27-1.44c-0.45-0.49-0.94-0.97-1.44-1.45c-0.5-0.48-1.03-0.94-1.58-1.37
		c-0.55-0.42-1.11-0.84-1.69-1.17c-0.14-0.08-0.29-0.18-0.43-0.25l-0.46-0.25c-0.3-0.15-0.59-0.3-0.88-0.43
		c-1.18-0.54-2.34-0.93-3.34-1.22c-1.01-0.27-1.86-0.45-2.47-0.56C49.2,48.37,48.86,48.31,48.86,48.31z M63.39,48.09
		c0,0,0.28,0,0.76,0.04c0.49,0.04,1.18,0.11,2.02,0.28c0.83,0.17,1.8,0.43,2.81,0.86c0.5,0.22,1.01,0.45,1.52,0.76
		c0.49,0.29,0.99,0.63,1.45,0.99c0.47,0.36,0.9,0.77,1.31,1.17c0.42,0.41,0.79,0.84,1.14,1.26c0.7,0.85,1.26,1.7,1.69,2.46
		c0.44,0.75,0.74,1.4,0.95,1.87c0.2,0.46,0.3,0.73,0.3,0.73s-0.16-0.24-0.44-0.66c-0.28-0.42-0.68-1.01-1.19-1.7
		c-0.25-0.34-0.54-0.71-0.84-1.09c-0.3-0.38-0.64-0.76-0.99-1.16c-0.35-0.39-0.74-0.78-1.14-1.16c-0.4-0.38-0.82-0.75-1.26-1.09
		c-0.44-0.35-0.88-0.67-1.35-0.96c-0.45-0.28-0.93-0.55-1.39-0.77c-0.93-0.46-1.85-0.79-2.64-1.06c-0.8-0.26-1.47-0.45-1.95-0.58
		C63.66,48.16,63.39,48.09,63.39,48.09z M81.14,49.45c0,0,0.6,0.12,1.46,0.46c0.86,0.34,1.98,0.9,2.99,1.68
		c1.01,0.79,1.8,1.8,2.31,2.58c0.26,0.39,0.44,0.74,0.58,0.97c0.13,0.24,0.19,0.38,0.19,0.38s-0.1-0.12-0.28-0.33
		c-0.17-0.21-0.43-0.5-0.73-0.85c-0.61-0.69-1.44-1.6-2.38-2.33c-0.23-0.18-0.48-0.36-0.73-0.53c-0.25-0.16-0.49-0.34-0.73-0.48
		c-0.48-0.31-0.94-0.58-1.34-0.8c-0.4-0.22-0.73-0.42-0.97-0.54C81.27,49.52,81.14,49.45,81.14,49.45z M99.19,73.32
		c-1.23,1.03-2.88,1.86-4.76,2.47c-1.89,0.62-4.01,1.06-6.26,1.41c-2.26,0.35-4.66,0.62-7.15,0.83c-4.97,0.44-10.29,0.81-15.55,1.43
		c-2.64,0.3-5.28,0.6-7.89,0.84c-2.61,0.25-5.19,0.45-7.68,0.62c-2.5,0.16-4.92,0.26-7.22,0.3c-2.3,0.05-4.48,0.05-6.5,0.01
		c-1.01-0.02-1.97-0.05-2.89-0.09c-0.92-0.06-1.79-0.09-2.61-0.16c-1.64-0.12-3.07-0.26-4.24-0.4c-1.18-0.13-2.1-0.28-2.72-0.38
		c-0.63-0.1-0.96-0.16-0.96-0.16s0.34,0.04,0.96,0.11c0.63,0.08,1.55,0.17,2.73,0.26c1.17,0.1,2.6,0.19,4.23,0.25
		c1.63,0.06,3.47,0.09,5.48,0.09c2-0.01,4.17-0.04,6.46-0.15c2.29-0.09,4.7-0.25,7.19-0.42c2.49-0.19,5.05-0.4,7.65-0.67
		c2.6-0.26,5.23-0.58,7.87-0.89c5.29-0.59,10.62-0.92,15.59-1.33c4.96-0.42,9.61-0.84,13.36-1.98c1.87-0.57,3.5-1.32,4.73-2.27
		c1.24-0.95,2.03-2.11,2.46-3.16c0.44-1.05,0.58-1.97,0.65-2.59c0.04-0.31,0.05-0.55,0.06-0.71c0.01-0.16,0.01-0.25,0.01-0.25
		s0,0.08,0,0.25c0,0.16,0,0.41-0.02,0.72c-0.04,0.63-0.14,1.56-0.55,2.65C101.2,71.07,100.42,72.29,99.19,73.32z M111.51,74.68
		c-1.76,0-5.21,0-9.85-0.01c1.6-1.54,2.6-3.43,3-5.7c3.13,0,5.49,0,6.84-0.01V74.68z"/>
	<path class="st1" d="M94.79,81.97c-2.6,0.13-5.42,0.27-8.4,0.45c-2.98,0.17-6.12,0.34-9.37,0.55c-3.25,0.21-6.6,0.4-10.01,0.65
		c-3.41,0.24-6.87,0.48-10.33,0.72c-3.46,0.27-6.92,0.53-10.33,0.79c-3.41,0.25-6.76,0.56-10,0.82c-3.24,0.26-6.38,0.55-9.35,0.82
		c-2.97,0.26-5.78,0.53-8.37,0.79c-5.18,0.5-9.5,0.96-12.52,1.29C3.09,89.2,1.37,89.4,1.37,89.4s1.74-0.06,4.77-0.15
		c3.04-0.11,7.37-0.29,12.58-0.55c2.6-0.13,5.42-0.27,8.4-0.45c2.98-0.17,6.12-0.34,9.37-0.55c3.25-0.21,6.6-0.4,10.01-0.65
		c3.41-0.24,6.87-0.48,10.33-0.72c3.46-0.27,6.92-0.53,10.33-0.79c3.41-0.25,6.76-0.55,10-0.82c3.24-0.26,6.38-0.55,9.35-0.82
		c2.97-0.26,5.78-0.53,8.37-0.79c5.18-0.5,9.5-0.96,12.52-1.29c3.02-0.35,4.75-0.54,4.75-0.54s-1.74,0.06-4.77,0.15
		C104.33,81.53,99.99,81.7,94.79,81.97z"/>
</g>
</svg>
